<?xml version="1.0" encoding="UTF-8" standalone="no"?>
<!DOCTYPE svg PUBLIC "-//W3C//DTD SVG 1.1//EN" "http://www.w3.org/Graphics/SVG/1.1/DTD/svg11.dtd">
<svg xmlns="http://www.w3.org/2000/svg" version="1.1" viewBox="0.00 0.00 91.00 91.00">
<g stroke-width="2.00" fill="none" stroke-linecap="butt">
<path stroke="#808080" vector-effect="non-scaling-stroke" d="
  M 77.80 45.96
  A 31.86 31.86 0.0 0 0 45.94 14.10
  A 31.86 31.86 0.0 0 0 14.08 45.96
  A 31.86 31.86 0.0 0 0 45.94 77.82
  A 31.86 31.86 0.0 0 0 77.80 45.96"
/>
<path stroke="#808080" vector-effect="non-scaling-stroke" d="
  M 59.9694 55.5766
  A 15.56 15.56 0.0 0 0 57.5929 33.7002
  L 55.4263 31.9582
  A 15.56 15.56 0.0 0 0 33.5499 34.3348
  L 31.8706 36.4234
  A 15.56 15.56 0.0 0 0 34.2471 58.2998
  L 36.4137 60.0418
  A 15.56 15.56 0.0 0 0 58.2901 57.6652
  L 59.9694 55.5766"
/>
<path stroke="#808080" vector-effect="non-scaling-stroke" d="
  M 46.3864 53.8990
  A 7.87 7.31 90.9 0 0 53.8191 46.1448
  A 7.87 7.31 90.9 0 0 46.6336 38.1610
  A 7.87 7.31 90.9 0 0 39.2009 45.9152
  A 7.87 7.31 90.9 0 0 46.3864 53.8990"
/>
</g>
<path fill="#000000" d="
  M 17.76 86.19
  Q 12.80 83.65 8.69 78.79
  C 4.17 73.44 3.49 68.81 3.47 61.68
  C 3.47 59.53 2.58 57.55 2.57 55.25
  Q 2.51 44.19 2.56 33.12
  C 2.57 31.34 3.42 29.98 3.43 28.29
  C 3.53 10.39 16.95 3.19 32.95 2.72
  Q 44.59 2.37 56.25 2.76
  C 57.31 2.80 58.54 3.58 59.95 3.58
  Q 62.77 3.56 65.58 3.63
  C 68.17 3.69 70.56 4.55 73.11 5.11
  C 77.02 5.96 84.02 13.15 85.76 16.85
  C 88.24 22.13 88.64 26.55 88.40 32.72
  C 88.31 34.97 89.26 36.53 89.34 38.60
  C 89.54 43.88 89.68 49.37 89.01 54.61
  C 87.82 63.95 89.73 72.18 82.47 79.71
  C 79.83 82.45 77.88 84.60 74.89 86.08
  C 72.72 87.15 70.14 87.39 67.60 87.96
  C 63.99 88.77 59.74 88.46 56.05 88.42
  C 54.24 88.41 53.01 89.38 51.30 89.41
  C 44.52 89.53 37.94 89.75 31.21 88.71
  C 26.23 87.94 23.07 88.91 17.76 86.19
  Z
  M 77.80 45.96
  A 31.86 31.86 0.0 0 0 45.94 14.10
  A 31.86 31.86 0.0 0 0 14.08 45.96
  A 31.86 31.86 0.0 0 0 45.94 77.82
  A 31.86 31.86 0.0 0 0 77.80 45.96
  Z"
/>
<path fill="#ffffff" d="
  M 77.80 45.96
  A 31.86 31.86 0.0 0 1 45.94 77.82
  A 31.86 31.86 0.0 0 1 14.08 45.96
  A 31.86 31.86 0.0 0 1 45.94 14.10
  A 31.86 31.86 0.0 0 1 77.80 45.96
  Z
  M 59.9694 55.5766
  A 15.56 15.56 0.0 0 0 57.5929 33.7002
  L 55.4263 31.9582
  A 15.56 15.56 0.0 0 0 33.5499 34.3348
  L 31.8706 36.4234
  A 15.56 15.56 0.0 0 0 34.2471 58.2998
  L 36.4137 60.0418
  A 15.56 15.56 0.0 0 0 58.2901 57.6652
  L 59.9694 55.5766
  Z"
/>
<path fill="#000000" d="
  M 58.2901 57.6652
  A 15.56 15.56 0.0 0 1 36.4137 60.0418
  L 34.2471 58.2998
  A 15.56 15.56 0.0 0 1 31.8706 36.4234
  L 33.5499 34.3348
  A 15.56 15.56 0.0 0 1 55.4263 31.9582
  L 57.5929 33.7002
  A 15.56 15.56 0.0 0 1 59.9694 55.5766
  L 58.2901 57.6652
  Z
  M 46.3864 53.8990
  A 7.87 7.31 90.9 0 0 53.8191 46.1448
  A 7.87 7.31 90.9 0 0 46.6336 38.1610
  A 7.87 7.31 90.9 0 0 39.2009 45.9152
  A 7.87 7.31 90.9 0 0 46.3864 53.8990
  Z"
/>
<ellipse fill="#ffffff" cx="0.00" cy="0.00" transform="translate(46.51,46.03) rotate(90.9)" rx="7.87" ry="7.31"/>
</svg>
